# xmcd
#
# Track frame offsets:
#	150
#	11350
#	22243
#	34275
#	47377
#	60482
#	72646
#	86516
#	99318
#	111688
#	124297
#	138359
#	152697
#	164444
#	177116
#	189541
#	202894
#	217233
#	229067
#	239777
#	255138
#	267486
#	280723
#	296778
#	311097
#
# Disc length: 4331 seconds
# Revision: 0
# Processed by: cddbd v1.5.2PL0 Copyright (c) Steve Scherf et al.
# Submitted via: dBpowerAMP V12.0
#
DISCID=7710e919
DTITLE=Various Artist - The Sonny Terry And Brownie McGhee Story
DYEAR=2015
DGENRE=Blues
TTITLE0=Sonny Terry - Worried Life Blues
TTITLE1=Sonny Terry - Lovin' With A Feeling
TTITLE2=Sonny Terry - Mean Ole Frisco
TTITLE3=Sonny Terry - Sportin' Life Blues
TTITLE4=Sonny Terry - Bad Blood
TTITLE5=Sonny Terry - Big Legged Woman
TTITLE6=Sonny Terry - Precious Lord Hold My Hand
TTITLE7=Sonny Terry - If I Could Hear My Mother Pray Again
TTITLE8=Sonny Terry - Whoopin' The Blues
TTITLE9=Sonny Terry - Fiff And Harmonica Jump
TTITLE10=Sonny Terry - All Alone Blues
TTITLE11=Brownie McGhee - Pawnshop Blues
TTITLE12=Brownie McGhee - The Way I Feel
TTITLE13=Sonny Terry - Screamin' And Cryin' Blues
TTITLE14=Sonny Terry - Beer Garden Blues
TTITLE15=Sonny Terry - Custard Pie Blues
TTITLE16=Sonny Terry - Hot Headed Woman
TTITLE17=Brownie McGhee - My Fault
TTITLE18=Brownie McGhee - Gin Headed Woman
TTITLE19=Sonny Terry - Telephone Blues
TTITLE20=Sonny Terry - Dirty Mistreater, Don't You Know
TTITLE21=Sonny Terry - Diggin' My Potatoes
TTITLE22=Sonny Terry - My Baby Done Changed The Lock On That Door
TTITLE23=Sonny Terry - Sonny's Jump
TTITLE24=Sonny Terry - Don't Dog Your Woman
EXTD=
EXTT0=
EXTT1=
EXTT2=
EXTT3=
EXTT4=
EXTT5=
EXTT6=
EXTT7=
EXTT8=
EXTT9=
EXTT10=
EXTT11=
EXTT12=
EXTT13=
EXTT14=
EXTT15=
EXTT16=
EXTT17=
EXTT18=
EXTT19=
EXTT20=
EXTT21=
EXTT22=
EXTT23=
EXTT24=
PLAYORDER=
